<?xml version="1.0" encoding="utf-8"?>
<!-- Generator: Adobe Illustrator 21.0.0, SVG Export Plug-In . SVG Version: 6.00 Build 0)  -->
<svg version="1.1" id="Слой_1" xmlns="http://www.w3.org/2000/svg" xmlns:xlink="http://www.w3.org/1999/xlink" x="0px" y="0px"
	 viewBox="0 0 246 76.8" style="enable-background:new 0 0 246 76.8;" xml:space="preserve">
<style type="text/css">
	.st0{fill:url(#SVGID_1_);}
	.st1{fill:url(#SVGID_2_);}
	.st2{fill:url(#SVGID_3_);}
	.st3{fill:url(#SVGID_4_);}
	.st4{fill:url(#SVGID_5_);}
	.st5{fill:url(#SVGID_6_);}
	.st6{fill:url(#SVGID_7_);}
	.st7{fill:url(#SVGID_8_);}
	.st8{fill:#424242;}
	.st9{fill:#A5A5A5;}
	.st10{fill:url(#SVGID_9_);}
	.st11{fill:url(#SVGID_10_);}
	.st12{fill:url(#SVGID_11_);}
</style>
<title>Ресурс 1</title>
<g id="Слой_2">
	<g id="Слой_1-2">
		<linearGradient id="SVGID_1_" gradientUnits="userSpaceOnUse" x1="86.9178" y1="4.0092" x2="86.9178" y2="30.1255">
			<stop  offset="0" style="stop-color:#0573C4;stop-opacity:0.8"/>
			<stop  offset="1" style="stop-color:#0573C4"/>
		</linearGradient>
		<path class="st0" d="M77,21.6h4.5c0,0.8,0.1,1.6,0.2,2.4c0.1,0.5,0.4,1,0.8,1.3c0.5,0.3,1,0.5,1.6,0.6c0.9,0.1,1.9,0.2,2.8,0.1
			c1.1,0,2.3-0.1,3.4-0.4c0.7-0.2,1.3-0.6,1.6-1.2c0.3-0.7,0.5-1.4,0.4-2.1c0.1-0.8-0.1-1.5-0.6-2.2c-0.5-0.5-1.1-0.9-1.8-1
			c-1.3-0.2-2.5-0.4-3.8-0.4c-1.7,0-3.4-0.3-5.1-0.8c-1.2-0.4-2.3-1.2-3-2.3c-0.8-1.4-1.1-2.9-1.1-4.5c0-1.4,0.3-2.7,0.9-3.9
			c0.7-1.1,1.7-2,3-2.5c1.9-0.6,3.8-0.9,5.8-0.9c3.1,0,5.5,0.5,7.1,1.4s2.4,2.7,2.5,5.3v1h-4.5c0-0.8-0.1-1.7-0.4-2.4
			c-0.3-0.6-0.8-0.9-1.5-1.1c-1-0.2-2-0.3-3-0.3c-2,0-3.3,0.3-4,0.9c-0.7,0.6-1.1,1.6-1.1,2.5c-0.1,0.7,0,1.4,0.3,2.1
			c0.4,0.5,0.9,0.9,1.6,1c1.3,0.3,2.7,0.4,4,0.4c1.7,0,3.5,0.2,5.1,0.7c1.2,0.4,2.3,1.1,3.1,2.2c0.7,1.3,1.1,2.7,1,4.2
			c0.1,1.6-0.2,3.2-0.7,4.7c-0.6,1.2-1.7,2.1-3,2.6c-2,0.6-4.1,0.9-6.3,0.8c-1.8,0-3.7-0.1-5.5-0.5c-1.3-0.3-2.4-1.1-3.2-2.1
			c-0.9-1.4-1.3-3.1-1.2-4.8L77,21.6z"/>
		<linearGradient id="SVGID_2_" gradientUnits="userSpaceOnUse" x1="111.22" y1="4.33" x2="111.22" y2="29.8">
			<stop  offset="0" style="stop-color:#0573C4;stop-opacity:0.8"/>
			<stop  offset="1" style="stop-color:#0573C4"/>
		</linearGradient>
		<path class="st1" d="M104.9,4.3v10.4h2.2l8.3-10.4h5.8l-10,12.4l11.1,13.1h-6l-9.2-10.9h-2.2v10.9h-4.8V4.3H104.9z"/>
		<linearGradient id="SVGID_3_" gradientUnits="userSpaceOnUse" x1="134.7" y1="4.33" x2="134.7" y2="29.8">
			<stop  offset="0" style="stop-color:#0573C4;stop-opacity:0.8"/>
			<stop  offset="1" style="stop-color:#0573C4"/>
		</linearGradient>
		<path class="st2" d="M146.1,4.3L136.9,20v9.8h-4.8V20l-8.8-15.7h5.4l6,10.9l6-10.9H146.1z"/>
		<linearGradient id="SVGID_4_" gradientUnits="userSpaceOnUse" x1="156.96" y1="4.33" x2="156.96" y2="29.8">
			<stop  offset="0" style="stop-color:#0573C4;stop-opacity:0.8"/>
			<stop  offset="1" style="stop-color:#0573C4"/>
		</linearGradient>
		<path class="st3" d="M153.6,4.3v21.2h11.5v4.3h-16.3V4.3H153.6z"/>
		<linearGradient id="SVGID_5_" gradientUnits="userSpaceOnUse" x1="178.3301" y1="4.0426" x2="178.3301" y2="30.1782">
			<stop  offset="0" style="stop-color:#0573C4;stop-opacity:0.8"/>
			<stop  offset="1" style="stop-color:#0573C4"/>
		</linearGradient>
		<path class="st4" d="M167.7,16.5c0-2.1,0.1-4.1,0.5-6.1c0.2-1.4,0.8-2.7,1.6-3.8c0.8-1,1.9-1.7,3.2-2c3.5-0.8,7.1-0.8,10.5,0
			c1.2,0.3,2.3,1,3.2,2c0.9,1.1,1.4,2.4,1.7,3.8c0.4,2,0.5,4.1,0.5,6.1c0,2.3-0.1,4.7-0.5,7c-0.2,1.5-0.8,2.9-1.7,4.1
			c-0.8,1-1.9,1.7-3.2,2c-1.7,0.4-3.5,0.6-5.3,0.6c-1.8,0.1-3.7-0.1-5.5-0.6c-1.2-0.3-2.3-1-3.1-2c-0.8-1.2-1.4-2.6-1.5-4
			C167.8,21.3,167.7,18.9,167.7,16.5z M172.6,17.1c0,1.6,0,3.3,0.2,4.9c0.1,0.9,0.3,1.8,0.8,2.6c0.4,0.6,1,1,1.7,1.1
			c1,0.2,2,0.3,3.1,0.3c1,0,2.1-0.1,3.1-0.3c0.7-0.2,1.3-0.6,1.7-1.2c0.5-0.8,0.7-1.7,0.8-2.6c0.2-1.6,0.2-3.2,0.2-4.8
			c0-1.6-0.1-3.3-0.2-4.9c-0.1-0.9-0.4-1.8-0.8-2.6c-0.4-0.6-1-1-1.6-1.1c-1-0.2-2-0.3-3.1-0.3c-1,0-2.1,0.1-3.1,0.3
			c-0.7,0.1-1.2,0.5-1.6,1.1c-0.5,0.8-0.7,1.6-0.8,2.5C172.6,13.8,172.6,15.4,172.6,17.1z"/>
		<linearGradient id="SVGID_6_" gradientUnits="userSpaceOnUse" x1="202.8799" y1="4.0322" x2="202.8799" y2="30.0781">
			<stop  offset="0" style="stop-color:#0573C4;stop-opacity:0.8"/>
			<stop  offset="1" style="stop-color:#0573C4"/>
		</linearGradient>
		<path class="st5" d="M202.7,16.3h10.9v2.8c0,1.8-0.1,3.5-0.4,5.2c-0.2,1.2-0.8,2.4-1.6,3.3c-0.9,0.9-2,1.6-3.2,1.9
			c-1.8,0.4-3.6,0.6-5.4,0.6c-1.9,0.1-3.8-0.2-5.7-0.7c-1.3-0.3-2.4-1.1-3.2-2.1c-0.8-1.1-1.3-2.5-1.5-3.9c-0.3-2.1-0.4-4.2-0.4-6.4
			c0-2.1,0.1-4.1,0.4-6.1c0.2-1.4,0.8-2.8,1.6-3.9c0.8-1.1,2-1.8,3.3-2.2c1.8-0.5,3.7-0.8,5.6-0.7c1.6,0,3.3,0.1,4.9,0.4
			c1.1,0.2,2.2,0.6,3.2,1.3c0.8,0.6,1.5,1.5,1.8,2.4c0.4,1.3,0.7,2.6,0.7,3.9H209c-0.1-0.7-0.2-1.4-0.4-2c-0.2-0.4-0.5-0.8-0.9-1.1
			c-0.5-0.3-1.1-0.5-1.7-0.6c-1-0.1-2-0.2-3.1-0.2c-1.1,0-2.2,0.1-3.2,0.4c-0.7,0.2-1.3,0.7-1.8,1.3c-0.5,0.8-0.8,1.7-0.8,2.6
			c-0.2,1.5-0.2,3.1-0.2,4.6c0,1.6,0.1,3.2,0.2,4.8c0.1,0.9,0.4,1.8,0.8,2.6c0.4,0.6,1,1,1.8,1.2c1.1,0.2,2.1,0.4,3.2,0.3
			c1.3,0,2.5-0.1,3.8-0.4c0.8-0.2,1.4-0.8,1.8-1.5c0.4-1.1,0.6-2.2,0.5-3.4v-0.7h-6.3V16.3z"/>
		<linearGradient id="SVGID_7_" gradientUnits="userSpaceOnUse" x1="219.235" y1="4.33" x2="219.235" y2="29.8">
			<stop  offset="0" style="stop-color:#0573C4;stop-opacity:0.8"/>
			<stop  offset="1" style="stop-color:#0573C4"/>
		</linearGradient>
		<path class="st6" d="M221.6,4.3v25.5h-4.7V4.3H221.6z"/>
		<linearGradient id="SVGID_8_" gradientUnits="userSpaceOnUse" x1="235.6738" y1="4.0822" x2="235.6738" y2="30.0902">
			<stop  offset="0" style="stop-color:#0573C4;stop-opacity:0.8"/>
			<stop  offset="1" style="stop-color:#0573C4"/>
		</linearGradient>
		<path class="st7" d="M241.4,20.7h4.7v1.5c0.1,1.6-0.3,3.2-1,4.7c-0.7,1.2-1.9,2.1-3.2,2.5c-2,0.6-4,0.8-6.1,0.8
			c-1.7,0-3.5-0.2-5.1-0.6c-1.2-0.4-2.3-1.1-3.1-2.1c-0.9-1.2-1.4-2.6-1.7-4c-0.4-2.2-0.5-4.5-0.5-6.7c-0.1-2.5,0.2-4.9,0.9-7.3
			c0.5-1.7,1.6-3.1,3.1-4c1.9-1,4.1-1.4,6.3-1.3c2.1-0.1,4.2,0.3,6.2,1c1.3,0.5,2.4,1.5,3,2.8c0.7,1.6,1,3.3,1.1,5h-4.6
			c0-1-0.2-2.1-0.6-3c-0.3-0.6-0.9-1.1-1.6-1.3c-1.1-0.3-2.3-0.4-3.4-0.3c-1.2-0.1-2.4,0.1-3.4,0.6c-0.8,0.6-1.4,1.4-1.5,2.4
			c-0.3,1.9-0.5,3.8-0.4,5.8c0,1.5,0.1,3,0.3,4.5c0.1,0.9,0.4,1.8,0.9,2.6c0.4,0.6,1,1.1,1.6,1.3c0.9,0.3,1.8,0.4,2.8,0.4
			c1.2,0,2.3-0.1,3.4-0.3c0.7-0.1,1.3-0.5,1.7-1.1c0.4-0.7,0.6-1.4,0.5-2.2L241.4,20.7z"/>
		<path class="st8" d="M84.8,49.4h3c0,0.8-0.1,1.6-0.3,2.3c-0.2,0.6-0.5,1.1-0.9,1.5c-0.5,0.4-1.1,0.7-1.7,0.9
			c-0.9,0.2-1.8,0.3-2.7,0.3c-1.2,0.1-2.4-0.2-3.4-0.6c-0.8-0.4-1.5-1.1-1.8-2c-0.4-1.2-0.6-2.6-0.5-3.9c-0.1-1.3,0.1-2.7,0.5-3.9
			c0.3-0.9,1-1.6,1.8-2c1.1-0.4,2.3-0.7,3.4-0.6c1,0,1.9,0.1,2.9,0.3c0.8,0.2,1.5,0.6,2,1.3c0.5,0.7,0.8,1.6,0.7,2.5V46h-3v-0.2
			c0-0.5-0.1-0.9-0.3-1.3c-0.2-0.3-0.5-0.5-0.8-0.6c-0.5-0.1-1-0.2-1.6-0.1c-0.6,0-1.1,0.1-1.7,0.4c-0.4,0.3-0.7,0.8-0.8,1.3
			c-0.2,0.8-0.3,1.7-0.2,2.5c0,0.8,0.1,1.7,0.2,2.5c0.1,0.5,0.4,1,0.8,1.3c0.5,0.3,1.1,0.4,1.7,0.4c0.6,0,1.2-0.1,1.8-0.3
			c0.4-0.1,0.6-0.4,0.8-0.8C84.8,50.5,84.8,50,84.8,49.4z"/>
		<path class="st8" d="M93.1,46.2v8h-3V41.6H93l-0.1,1.7H93c0.3-0.6,0.8-1.1,1.3-1.4c0.6-0.3,1.3-0.5,2-0.5c1-0.1,2.1,0.3,2.8,1.1
			c0.6,0.9,0.8,2,0.8,3.1v0.8H97v-0.5c0-0.6-0.1-1.1-0.3-1.7c-0.2-0.3-0.6-0.5-1.4-0.5c-0.6,0-1.2,0.2-1.7,0.7
			C93.3,44.9,93.1,45.5,93.1,46.2z"/>
		<path class="st8" d="M109.9,50.2h3v0.5c0.1,0.8-0.2,1.7-0.7,2.3c-0.5,0.6-1.2,1-1.9,1.1c-1,0.2-2.1,0.3-3.2,0.3
			c-1.2,0.1-2.3-0.2-3.4-0.6c-0.8-0.4-1.5-1.1-1.8-2c-0.4-1.2-0.6-2.5-0.5-3.8c0-1.3,0.1-2.6,0.6-3.8c0.3-0.9,1-1.6,1.8-2
			c2.2-0.8,4.6-0.8,6.8,0c0.8,0.4,1.5,1.1,1.8,2c0.4,1.1,0.6,2.4,0.6,3.6v0.8h-8.5c0,0.8,0.1,1.6,0.2,2.4c0.1,0.5,0.4,0.9,0.8,1.1
			c0.5,0.2,1.1,0.3,1.7,0.3c0.5,0,1.1,0,1.6-0.2c0.3-0.1,0.7-0.3,0.9-0.5c0.2-0.3,0.3-0.7,0.3-1.1L109.9,50.2z M110,46.6
			c0-0.6-0.1-1.2-0.3-1.8c-0.2-0.4-0.5-0.7-0.9-0.9c-0.5-0.2-1.1-0.3-1.7-0.3c-0.6,0-1.1,0.1-1.7,0.3c-0.4,0.2-0.7,0.5-0.9,0.9
			c-0.2,0.6-0.3,1.2-0.3,1.8L110,46.6z"/>
		<path class="st8" d="M123.6,54.2l0.2-1.7h-0.1c-0.2,0.5-0.5,0.9-0.9,1.3c-0.4,0.3-0.8,0.5-1.3,0.5c-0.6,0.1-1.3,0.1-1.9,0.1
			c-0.9,0-1.8-0.1-2.6-0.4c-0.6-0.2-1.2-0.7-1.5-1.3c-0.4-0.7-0.5-1.5-0.5-2.3c0-0.7,0.1-1.4,0.3-2c0.1-0.5,0.4-0.9,0.8-1.2
			c0.4-0.3,0.9-0.5,1.5-0.6c0.8-0.1,1.5-0.2,2.3-0.2c0.8,0,1.6,0.1,2.4,0.4c0.5,0.3,0.9,0.7,1.2,1.2h0.1v-2.1c0-0.5-0.1-1.1-0.3-1.6
			c-0.2-0.4-0.5-0.6-0.8-0.8c-0.5-0.2-1.1-0.2-1.7-0.2c-0.6-0.1-1.3,0.1-1.9,0.4c-0.4,0.4-0.6,0.9-0.5,1.5h-3c0-0.7,0.2-1.3,0.4-1.9
			c0.2-0.5,0.6-0.9,1.1-1.2c0.5-0.3,1-0.5,1.6-0.6c0.7-0.1,1.4-0.2,2.1-0.2c1.1,0,2.2,0.1,3.2,0.3c0.8,0.2,1.4,0.6,1.9,1.3
			c0.5,0.9,0.8,1.9,0.7,2.9v8.3L123.6,54.2z M123.6,50.4c0.1-0.6-0.2-1.1-0.6-1.5c-0.7-0.3-1.5-0.5-2.3-0.4c-0.5,0-1.1,0-1.6,0.2
			c-0.3,0.1-0.6,0.3-0.8,0.6c-0.2,0.4-0.3,0.7-0.2,1.1c-0.1,0.6,0.2,1.1,0.6,1.5c0.6,0.3,1.3,0.5,2,0.4c0.8,0.1,1.6-0.1,2.3-0.4
			C123.4,51.6,123.7,51,123.6,50.4z"/>
		<path class="st8" d="M133.1,43.9v6.4c0,0.4,0,0.7,0.1,1.1c0,0.2,0.2,0.4,0.4,0.5c0.3,0.1,0.6,0.2,0.9,0.2c0.6,0,1-0.2,1.2-0.5
			c0.2-0.5,0.3-1,0.3-1.6v-0.6h2.5c0,0.1,0,0.4,0,0.7c0,0.8-0.1,1.6-0.4,2.4c-0.3,0.6-0.7,1.1-1.3,1.4c-0.8,0.3-1.6,0.5-2.4,0.5
			c-0.8,0-1.6-0.1-2.4-0.3c-0.6-0.2-1.1-0.7-1.4-1.3c-0.3-0.8-0.5-1.6-0.4-2.5v-6.4h-1.6v-2.3h1.6v-2.8h3v2.8h4.8v2.3H133.1z"/>
		<path class="st8" d="M143.9,36.2v2.6h-3v-2.6H143.9z M143.9,41.6v12.6h-3V41.6L143.9,41.6z"/>
		<path class="st8" d="M157.8,41.6l-3.7,12.6h-4.6l-3.8-12.6h3.1l3,10.5l2.8-10.5L157.8,41.6z"/>
		<path class="st8" d="M167.6,50.2h3v0.5c0.1,0.8-0.2,1.7-0.7,2.3c-0.5,0.6-1.2,1-1.9,1.1c-1,0.2-2.1,0.3-3.2,0.3
			c-1.2,0.1-2.3-0.2-3.4-0.6c-0.8-0.4-1.5-1.1-1.8-2c-0.4-1.2-0.6-2.5-0.5-3.8c0-1.3,0.1-2.6,0.6-3.8c0.3-0.9,1-1.6,1.8-2
			c2.2-0.8,4.6-0.8,6.8,0c0.8,0.4,1.5,1.1,1.8,2c0.4,1.1,0.6,2.4,0.6,3.6v0.8h-8.5c0,0.8,0.1,1.6,0.2,2.4c0.1,0.5,0.4,0.9,0.8,1.1
			c0.5,0.2,1.1,0.3,1.7,0.3c0.5,0,1.1,0,1.6-0.2c0.3-0.1,0.7-0.3,0.9-0.5c0.2-0.3,0.3-0.7,0.3-1.1L167.6,50.2z M167.7,46.6
			c0-0.6-0.1-1.2-0.3-1.8c-0.2-0.4-0.5-0.7-0.9-0.9c-0.5-0.2-1.1-0.3-1.7-0.3c-0.6,0-1.1,0.1-1.6,0.3c-0.4,0.2-0.7,0.5-0.9,0.9
			c-0.2,0.6-0.3,1.2-0.3,1.8L167.7,46.6z"/>
		<path class="st8" d="M188,43.6l-0.1-1.9h2.9v12.9c0.1,1.1-0.1,2.2-0.6,3.3c-0.4,0.8-1,1.3-1.8,1.6c-1.1,0.3-2.2,0.5-3.4,0.5
			c-0.9,0-1.7,0-2.6-0.2c-0.6-0.1-1.1-0.3-1.6-0.7c-0.4-0.3-0.7-0.8-0.9-1.3c-0.2-0.7-0.3-1.4-0.3-2.1h2.9c-0.1,0.6,0.1,1.2,0.6,1.6
			c0.6,0.3,1.2,0.5,1.9,0.4c0.6,0,1.1,0,1.7-0.2c0.4-0.1,0.8-0.3,1-0.7c0.3-0.5,0.4-1,0.3-1.5v-2.7c-0.6,1.3-2,1.9-4,1.9
			c-0.8,0-1.6-0.1-2.3-0.4c-0.6-0.2-1.1-0.6-1.4-1.2c-0.4-0.6-0.6-1.2-0.7-1.9c-0.2-0.9-0.2-1.8-0.2-2.7c0-1.3,0.1-2.7,0.5-3.9
			c0.2-0.9,0.7-1.6,1.5-2.1c0.9-0.5,1.9-0.7,2.9-0.7c0.6,0,1.2,0,1.7,0.2c0.4,0.1,0.8,0.3,1.2,0.6c0.4,0.4,0.7,0.9,1,1.3L188,43.6z
			 M187.8,47.8c0-0.8,0-1.6-0.2-2.4c-0.1-0.5-0.4-1-0.8-1.3c-0.6-0.3-1.2-0.5-1.9-0.4c-0.5,0-1,0-1.4,0.1c-0.3,0.1-0.6,0.3-0.8,0.5
			c-0.2,0.4-0.4,0.8-0.4,1.2c-0.1,0.7-0.1,1.4-0.1,2.2c0,0.7,0,1.5,0.1,2.2c0,0.4,0.1,0.8,0.4,1.2c0.2,0.3,0.5,0.5,0.8,0.6
			c0.5,0.1,1,0.2,1.5,0.2c0.6,0,1.3-0.1,1.8-0.4c0.4-0.3,0.7-0.8,0.8-1.3C187.8,49.5,187.8,48.7,187.8,47.8L187.8,47.8z"/>
		<path class="st8" d="M197,46.2v8h-3V41.6h2.9l-0.1,1.7h0.1c0.3-0.6,0.8-1.1,1.4-1.4c0.6-0.3,1.3-0.5,2-0.5c1-0.1,2,0.3,2.7,1.1
			c0.6,0.9,0.8,2,0.8,3.1v0.8h-2.8v-0.5c0-0.6-0.1-1.1-0.3-1.7c-0.2-0.3-0.6-0.5-1.4-0.5c-0.6,0-1.2,0.2-1.7,0.7
			C197.1,44.9,196.9,45.5,197,46.2z"/>
		<path class="st8" d="M205.1,47.9c-0.1-1.3,0.1-2.6,0.5-3.9c0.3-0.9,1-1.6,1.8-2c2.3-0.8,4.9-0.8,7.2,0c0.9,0.4,1.5,1.1,1.8,2
			c0.4,1.2,0.6,2.6,0.5,3.9c0,1-0.1,2.1-0.3,3.1c-0.2,0.7-0.5,1.4-1,2c-0.5,0.5-1.1,0.9-1.7,1c-0.9,0.3-1.9,0.4-2.9,0.4
			c-1,0-1.9-0.1-2.9-0.3c-0.7-0.2-1.3-0.6-1.8-1.1c-0.5-0.6-0.8-1.3-1-2C205.2,49.9,205.1,48.9,205.1,47.9z M208.2,47.9
			c0,0.9,0.1,1.8,0.3,2.6c0.1,0.5,0.4,0.9,0.9,1.2c0.5,0.2,1.1,0.4,1.7,0.3c0.6,0,1.2-0.1,1.8-0.3c0.4-0.3,0.8-0.7,0.9-1.2
			c0.2-0.9,0.3-1.8,0.3-2.7c0-0.7,0-1.4-0.1-2.1c-0.1-0.4-0.2-0.9-0.5-1.2c-0.2-0.3-0.5-0.5-0.9-0.6c-0.5-0.1-0.9-0.2-1.4-0.2
			c-0.6,0-1.2,0.1-1.7,0.3c-0.4,0.3-0.8,0.7-0.9,1.2C208.3,46.1,208.2,47,208.2,47.9L208.2,47.9z"/>
		<path class="st8" d="M228,49.2v-7.6h3v12.6h-2.9l0.1-1.9h-0.1c-0.8,1.4-2.3,2.2-3.9,2.1c-0.9,0-1.7-0.1-2.5-0.4
			c-0.6-0.2-1.2-0.7-1.5-1.3c-0.4-0.8-0.5-1.6-0.5-2.5v-8.6h3v7.8c0,0.5,0,1.1,0.2,1.6c0.1,0.3,0.3,0.6,0.7,0.8
			c0.5,0.2,1,0.3,1.5,0.3C227,52.1,228,51.1,228,49.2z"/>
		<path class="st8" d="M237,52.5v7h-3V41.6h2.9l-0.1,1.8h0.1c0.4-0.7,1-1.2,1.6-1.5c0.7-0.3,1.5-0.5,2.3-0.4
			c1.1-0.1,2.2,0.2,3.1,0.7c0.7,0.5,1.3,1.2,1.5,2.1c0.3,1.2,0.4,2.3,0.4,3.5c0,0.9,0,1.8-0.1,2.7c-0.1,0.7-0.3,1.4-0.6,2
			c-0.3,0.6-0.8,1.1-1.4,1.4c-0.8,0.4-1.7,0.5-2.6,0.5c-0.8,0-1.6-0.1-2.4-0.4C237.9,53.7,237.4,53.1,237,52.5z M237,47.6
			c0,0.9,0,1.9,0.2,2.8c0.1,0.5,0.4,1,0.8,1.3c0.6,0.3,1.2,0.4,1.9,0.4c0.7,0.1,1.3-0.1,1.9-0.5c0.4-0.3,0.7-0.8,0.8-1.3
			c0.1-0.9,0.2-1.7,0.2-2.6c0-0.8,0-1.7-0.2-2.5c-0.1-0.5-0.4-0.8-0.8-1.1c-1.1-0.4-2.4-0.4-3.5,0c-0.4,0.2-0.8,0.6-0.9,1.1
			C237.1,45.9,237,46.8,237,47.6L237,47.6z"/>
		<path class="st9" d="M1.8,72.6v4.1H0V66.3h1.7l-0.1,1h0c0.2-0.4,0.6-0.7,1-0.9c0.4-0.2,0.9-0.3,1.3-0.3c0.6,0,1.3,0.1,1.8,0.4
			c0.4,0.3,0.7,0.7,0.9,1.2c0.2,0.7,0.2,1.4,0.2,2.1c0,0.5,0,1-0.1,1.6c0,0.4-0.2,0.8-0.4,1.2c-0.2,0.4-0.5,0.6-0.8,0.8
			c-0.5,0.2-1,0.3-1.5,0.3c-0.5,0-1-0.1-1.4-0.2C2.3,73.3,1.9,73,1.8,72.6z M1.8,69.8c0,0.5,0,1.1,0.1,1.6c0,0.3,0.2,0.6,0.5,0.8
			c0.3,0.2,0.7,0.3,1.1,0.2c0.4,0,0.8-0.1,1.1-0.3c0.2-0.2,0.4-0.5,0.4-0.8c0.1-0.5,0.1-1,0.1-1.5c0-0.5,0-1-0.1-1.5
			c-0.1-0.3-0.2-0.5-0.5-0.6c-0.3-0.1-0.7-0.2-1-0.2c-0.4,0-0.7,0-1,0.2c-0.3,0.1-0.4,0.4-0.5,0.7C1.8,68.8,1.7,69.3,1.8,69.8z"/>
		<path class="st9" d="M13.1,73.6l0.1-1l0,0c-0.1,0.3-0.3,0.5-0.6,0.7c-0.2,0.2-0.5,0.3-0.8,0.3c-0.4,0.1-0.7,0.1-1.1,0.1
			c-0.5,0-1-0.1-1.5-0.2c-0.4-0.1-0.7-0.4-0.9-0.7c-0.2-0.4-0.3-0.9-0.3-1.4c0-0.4,0-0.8,0.1-1.2c0.1-0.3,0.3-0.5,0.5-0.7
			c0.3-0.2,0.5-0.3,0.9-0.4c0.4-0.1,0.9-0.1,1.4-0.1c0.5,0,0.9,0,1.4,0.2c0.3,0.2,0.5,0.4,0.7,0.7h0.1v-1.3c0-0.3,0-0.6-0.1-0.9
			c-0.1-0.2-0.3-0.4-0.5-0.4c-0.3-0.1-0.7-0.1-1-0.1c-0.4,0-0.8,0-1.1,0.2c-0.2,0.2-0.3,0.5-0.3,0.9H8.4c0-0.4,0.1-0.8,0.3-1.1
			C8.8,67,9,66.8,9.3,66.6c0.3-0.2,0.6-0.3,0.9-0.3c0.4-0.1,0.8-0.1,1.3-0.1c0.6,0,1.3,0,1.9,0.2c0.5,0.1,0.9,0.4,1.1,0.8
			c0.3,0.5,0.5,1.1,0.4,1.7v4.8L13.1,73.6z M13.1,71.4c0-0.3-0.1-0.7-0.4-0.9c-0.4-0.2-0.9-0.3-1.4-0.2c-0.3,0-0.6,0-0.9,0.1
			c-0.2,0.1-0.4,0.2-0.5,0.3c-0.1,0.2-0.2,0.4-0.1,0.7c0,0.3,0.1,0.6,0.3,0.9c0.3,0.2,0.8,0.3,1.1,0.3c0.5,0,0.9,0,1.4-0.2
			C13,72.1,13.2,71.8,13.1,71.4z"/>
		<path class="st9" d="M19.5,70.5h-0.7v-1.2h0.7c0.4,0,0.9,0,1.2-0.3c0.2-0.2,0.3-0.5,0.3-0.7c0-0.2,0-0.4-0.1-0.5
			c-0.1-0.1-0.3-0.2-0.4-0.3c-0.3-0.1-0.6-0.1-0.9-0.1c-0.3,0-0.5,0-0.8,0.1c-0.2,0-0.3,0.1-0.5,0.3c-0.1,0.2-0.2,0.4-0.2,0.6h-1.7
			c0-0.5,0.2-0.9,0.4-1.3c0.2-0.3,0.6-0.6,1-0.7c0.6-0.2,1.2-0.2,1.8-0.2c0.6,0,1.1,0,1.7,0.2c0.4,0.1,0.8,0.3,1.1,0.6
			c0.3,0.3,0.4,0.7,0.4,1.1c0.1,0.8-0.5,1.5-1.3,1.6c0,0,0,0,0,0c0.4,0.1,0.8,0.3,1.1,0.7c0.2,0.3,0.4,0.7,0.3,1.1
			c0,0.4-0.1,0.8-0.2,1.1c-0.1,0.3-0.3,0.5-0.6,0.7c-0.3,0.2-0.6,0.3-1,0.3c-0.5,0.1-0.9,0.1-1.4,0.1c-0.7,0-1.3-0.1-2-0.2
			c-0.4-0.1-0.8-0.3-1.1-0.7c-0.2-0.4-0.3-0.8-0.3-1.2v-0.4h1.7c0,0.3,0,0.5,0.1,0.7c0.1,0.2,0.3,0.3,0.5,0.3c0.3,0.1,0.7,0.1,1,0.1
			c0.4,0,0.8,0,1.2-0.2c0.3-0.2,0.4-0.5,0.4-0.8c0-0.3-0.1-0.6-0.4-0.8C20.4,70.5,19.9,70.4,19.5,70.5z"/>
		<path class="st9" d="M24.2,73.6v-7.3h4c0.6-0.1,1.3,0.1,1.8,0.5c0.4,0.4,0.6,1,0.5,1.5c0,0.4-0.1,0.7-0.4,1
			c-0.3,0.3-0.6,0.5-1,0.6l0,0c0.4,0.1,0.8,0.3,1.1,0.6c0.3,0.3,0.4,0.7,0.4,1.2c0,0.4-0.1,0.8-0.2,1.2c-0.1,0.3-0.4,0.5-0.7,0.7
			c-0.4,0.2-0.9,0.2-1.4,0.2L24.2,73.6z M26,67.6v1.7h1.7c0.3,0,0.7,0,0.9-0.2c0.2-0.2,0.3-0.4,0.3-0.6c0-0.3-0.1-0.5-0.2-0.7
			c-0.2-0.2-0.5-0.2-0.8-0.2L26,67.6z M26,70.5v1.9h1.9c0.3,0,0.6-0.1,0.9-0.2c0.2-0.2,0.3-0.4,0.3-0.7c0-0.6-0.3-0.9-1-0.9L26,70.5
			z"/>
		<path class="st9" d="M33.9,66.3v4.3c0,0.7-0.1,1.4-0.3,2c0.4-0.8,0.6-1.4,0.8-1.7l2.4-4.6h2.1v7.3h-1.7v-4c0-0.4,0.1-0.8,0.1-1.2
			c0-0.3,0.1-0.7,0.2-1c-0.4,0.9-0.7,1.4-0.8,1.6l-2.4,4.6h-2.2v-7.4H33.9z"/>
		<path class="st9" d="M40.6,73.6v-7.3h4c0.6-0.1,1.3,0.1,1.8,0.5c0.4,0.4,0.6,1,0.5,1.5c0,0.4-0.1,0.7-0.4,1
			c-0.3,0.3-0.6,0.5-1,0.6l0,0c0.4,0.1,0.8,0.3,1.1,0.6c0.3,0.3,0.5,0.8,0.5,1.2c0,0.4-0.1,0.8-0.2,1.2c-0.1,0.3-0.4,0.5-0.7,0.7
			c-0.4,0.2-0.9,0.2-1.4,0.2H40.6z M42.3,67.6v1.7H44c0.3,0,0.7,0,0.9-0.2c0.2-0.2,0.3-0.4,0.3-0.6c0-0.3-0.1-0.5-0.2-0.7
			c-0.2-0.2-0.5-0.2-0.8-0.2L42.3,67.6z M42.3,70.5v1.9h1.9c0.3,0,0.6-0.1,0.9-0.2c0.2-0.2,0.3-0.4,0.3-0.7c0-0.6-0.3-0.9-1-0.9
			L42.3,70.5z"/>
		<path class="st9" d="M53.3,73.6l0.1-1l0,0c-0.1,0.3-0.3,0.5-0.5,0.7c-0.2,0.2-0.5,0.3-0.8,0.3c-0.4,0.1-0.7,0.1-1.1,0.1
			c-0.5,0-1-0.1-1.5-0.2c-0.4-0.1-0.7-0.4-0.9-0.7c-0.2-0.4-0.3-0.9-0.3-1.3c0-0.4,0-0.8,0.2-1.2c0.1-0.3,0.3-0.5,0.5-0.7
			c0.3-0.2,0.5-0.3,0.9-0.4c0.4-0.1,0.9-0.1,1.3-0.1c0.5,0,0.9,0,1.4,0.2c0.3,0.2,0.5,0.4,0.7,0.7h0.1v-1.3c0-0.3,0-0.6-0.2-0.9
			c-0.1-0.2-0.3-0.4-0.5-0.4c-0.3-0.1-0.7-0.1-1-0.1c-0.4,0-0.8,0-1.1,0.2c-0.2,0.2-0.3,0.5-0.3,0.9h-1.7c0-0.4,0.1-0.8,0.3-1.1
			c0.1-0.3,0.4-0.5,0.6-0.7c0.3-0.2,0.6-0.3,0.9-0.3c0.4-0.1,0.8-0.1,1.3-0.1c0.6,0,1.3,0,1.9,0.2c0.5,0.1,0.9,0.4,1.1,0.8
			c0.3,0.5,0.5,1.1,0.4,1.7v4.8L53.3,73.6z M53.3,71.4c0-0.3-0.1-0.7-0.4-0.9c-0.4-0.2-0.9-0.3-1.4-0.2c-0.3,0-0.6,0-0.9,0.1
			c-0.2,0.1-0.4,0.2-0.5,0.3C50.1,71,50,71.2,50,71.4c0,0.3,0.1,0.6,0.3,0.9c0.3,0.2,0.8,0.3,1.2,0.3c0.5,0,0.9,0,1.3-0.2
			C53.2,72.1,53.3,71.8,53.3,71.4z"/>
		<path class="st9" d="M61.5,71.3h1.7v0.3c0,0.5-0.1,1-0.4,1.4c-0.3,0.3-0.7,0.6-1.1,0.7c-0.6,0.1-1.2,0.2-1.8,0.2
			c-0.7,0-1.4-0.1-2-0.3c-0.5-0.2-0.8-0.7-1-1.2c-0.3-0.7-0.4-1.5-0.4-2.3c0-0.8,0.1-1.5,0.3-2.2c0.2-0.5,0.6-0.9,1-1.2
			c1.3-0.5,2.7-0.5,4,0c0.5,0.2,0.9,0.7,1.1,1.2c0.2,0.7,0.3,1.4,0.3,2.1v0.5h-5c0,0.5,0,0.9,0.1,1.3c0.1,0.3,0.2,0.5,0.5,0.6
			c0.3,0.1,0.7,0.2,1,0.2c0.3,0,0.7,0,1-0.1c0.2,0,0.4-0.2,0.5-0.3c0.1-0.2,0.2-0.4,0.2-0.6L61.5,71.3z M61.5,69.2
			c0-0.3,0-0.7-0.2-1c-0.1-0.2-0.3-0.4-0.5-0.5c-0.3-0.1-0.7-0.2-1-0.2c-0.3,0-0.7,0-1,0.2c-0.2,0.1-0.4,0.3-0.5,0.5
			c-0.1,0.3-0.2,0.7-0.2,1H61.5z"/>
		<path class="st9" d="M68.4,73.6L67,69.2l-0.3-1c-0.2-0.6-0.3-0.9-0.4-1.1c0.1,0.6,0.1,1.2,0.2,1.9v4.6h-1.6v-7.3h2.7l1.7,4.9
			c0.1,0.4,0.2,0.8,0.2,1.2c0-0.4,0.1-0.8,0.2-1.2l1.5-4.9h2.7v7.3h-1.7v-4.6c0-0.6,0.1-1.2,0.2-1.9c0,0.2-0.1,0.5-0.3,0.9l-0.4,1.1
			l-1.5,4.4H68.4z"/>
		<path class="st9" d="M79.4,73.6v-7.3h4c0.6-0.1,1.3,0.1,1.8,0.5c0.4,0.4,0.6,1,0.5,1.5c0,0.4-0.1,0.7-0.4,1
			c-0.3,0.3-0.6,0.5-1,0.6l0,0c0.4,0.1,0.8,0.3,1.1,0.6c0.3,0.3,0.4,0.7,0.4,1.2c0,0.4-0.1,0.8-0.2,1.2c-0.1,0.3-0.4,0.5-0.7,0.7
			c-0.4,0.2-0.9,0.2-1.4,0.2L79.4,73.6z M81.1,67.6v1.7h1.7c0.3,0,0.7,0,0.9-0.2c0.2-0.2,0.3-0.4,0.3-0.6c0-0.3-0.1-0.5-0.2-0.7
			c-0.2-0.2-0.5-0.2-0.8-0.2L81.1,67.6z M81.1,70.5v1.9H83c0.3,0,0.6-0.1,0.9-0.2c0.2-0.2,0.3-0.4,0.3-0.7c0-0.6-0.3-0.9-1-0.9
			L81.1,70.5z"/>
		<path class="st9" d="M92,73.6l0.1-1l0,0c-0.1,0.3-0.3,0.5-0.6,0.7c-0.2,0.2-0.5,0.3-0.8,0.3c-0.4,0.1-0.7,0.1-1.1,0.1
			c-0.5,0-1.1-0.1-1.6-0.2c-0.4-0.1-0.7-0.4-0.9-0.7c-0.2-0.4-0.3-0.9-0.3-1.3c0-0.4,0-0.8,0.2-1.2c0.1-0.3,0.3-0.5,0.5-0.7
			c0.3-0.2,0.5-0.3,0.9-0.4c0.4-0.1,0.9-0.1,1.4-0.1c0.5,0,0.9,0,1.4,0.2c0.3,0.2,0.5,0.4,0.7,0.7H92v-1.3c0-0.3,0-0.6-0.2-0.9
			c-0.1-0.2-0.3-0.4-0.5-0.4c-0.3-0.1-0.7-0.1-1-0.1c-0.4,0-0.8,0-1.1,0.2c-0.2,0.2-0.3,0.5-0.3,0.9h-1.7c0-0.4,0.1-0.8,0.3-1.1
			c0.1-0.3,0.4-0.5,0.6-0.7c0.3-0.2,0.6-0.3,0.9-0.3c0.4-0.1,0.8-0.1,1.3-0.1c0.6,0,1.3,0,1.9,0.2c0.5,0.1,0.9,0.4,1.1,0.8
			c0.3,0.5,0.5,1.1,0.4,1.7v4.8L92,73.6z M92,71.4c0-0.3-0.1-0.7-0.4-0.9c-0.4-0.2-0.9-0.3-1.4-0.2c-0.3,0-0.6,0-0.9,0.1
			c-0.2,0.1-0.4,0.2-0.5,0.3c-0.1,0.2-0.2,0.4-0.1,0.7c0,0.3,0.1,0.6,0.3,0.9c0.3,0.2,0.8,0.3,1.2,0.3c0.5,0,0.9,0,1.3-0.2
			C91.9,72.1,92.1,71.8,92,71.4z"/>
		<path class="st9" d="M97.3,66.3v6h2.6v-6h1.8v6h2.6v-6h1.8v7.3H95.6v-7.3H97.3z"/>
		<path class="st9" d="M112.9,67.5L112.9,67.5c0.2-0.3,0.4-0.6,0.7-0.8c0.4-0.3,0.8-0.4,1.3-0.4c0.5,0,1.1,0.1,1.6,0.2
			c0.4,0.1,0.7,0.3,1,0.7c0.3,0.3,0.5,0.7,0.6,1.1c0.1,0.5,0.2,1.1,0.2,1.6c0,0.8-0.1,1.5-0.3,2.2c-0.2,0.5-0.6,1-1.1,1.2
			c-0.7,0.3-1.4,0.4-2.1,0.4c-0.6,0-1.1-0.1-1.7-0.2c-0.4-0.1-0.8-0.3-1.1-0.6c-0.3-0.3-0.5-0.7-0.6-1.1c-0.1-0.6-0.2-1.2-0.2-1.8
			v-2.3c0-0.7,0.1-1.3,0.3-1.9c0.2-0.6,0.5-1.1,1-1.4c0.6-0.4,1.4-0.6,2.1-0.5c0.3,0,0.7,0,1,0c0.2,0,0.3-0.1,0.5-0.2
			c0.1-0.1,0.1-0.2,0.1-0.3h1.3c0,0.4-0.1,0.8-0.3,1.1c-0.2,0.3-0.6,0.5-0.9,0.5c-0.5,0.1-1,0.1-1.6,0.1c-0.6-0.1-1.1,0.2-1.6,0.6
			c-0.3,0.4-0.5,0.9-0.5,1.5v0.4L112.9,67.5z M113,70c0,0.4,0,0.9,0.1,1.3c0,0.3,0.2,0.5,0.3,0.7c0.1,0.2,0.3,0.3,0.5,0.3
			c0.2,0.1,0.5,0.1,0.8,0.1c0.3,0,0.7,0,1-0.2c0.3-0.1,0.5-0.4,0.5-0.7c0.1-0.5,0.2-1.1,0.2-1.6c0-0.5,0-0.9-0.2-1.4
			c-0.1-0.3-0.3-0.5-0.5-0.7c-0.3-0.1-0.7-0.2-1-0.2c-0.3,0-0.7,0-1,0.2c-0.3,0.1-0.5,0.4-0.5,0.7C113,69.1,113,69.5,113,70z"/>
		<path class="st9" d="M121.4,66.3v4.3c0,0.4,0,0.7-0.1,1.1c-0.1,0.3-0.1,0.6-0.2,0.9c0.4-0.8,0.6-1.4,0.8-1.7l2.4-4.6h2.1v7.3h-1.7
			v-4c0-0.4,0-0.8,0.1-1.2c0-0.3,0.1-0.7,0.2-1c-0.4,0.9-0.7,1.4-0.8,1.6l-2.4,4.6h-2.1v-7.4H121.4z"/>
		<path class="st9" d="M131,70.5h-0.7v-1.2h0.7c0.4,0,0.9,0,1.2-0.3c0.4-0.3,0.4-0.8,0.2-1.3c-0.1-0.1-0.3-0.2-0.4-0.3
			c-0.3-0.1-0.6-0.1-0.9-0.1c-0.3,0-0.5,0-0.8,0.1c-0.2,0-0.3,0.1-0.4,0.3c-0.1,0.2-0.2,0.4-0.2,0.6h-1.7c0-0.5,0.2-0.9,0.4-1.3
			c0.2-0.3,0.6-0.6,1-0.7c0.6-0.2,1.2-0.2,1.8-0.2c0.6,0,1.1,0,1.7,0.2c0.4,0.1,0.8,0.3,1.1,0.6c0.3,0.3,0.4,0.7,0.4,1.1
			c0.1,0.8-0.5,1.5-1.3,1.6c0,0,0,0,0,0c0.4,0.1,0.8,0.3,1.1,0.7c0.2,0.3,0.4,0.7,0.3,1.1c0,0.4-0.1,0.8-0.2,1.1
			c-0.1,0.3-0.3,0.5-0.6,0.7c-0.3,0.2-0.6,0.3-1,0.3c-0.5,0.1-0.9,0.1-1.4,0.1c-0.7,0-1.3-0.1-2-0.2c-0.4-0.1-0.8-0.3-1.1-0.7
			c-0.2-0.4-0.3-0.8-0.3-1.2v-0.4h1.7c0,0.3,0,0.5,0.1,0.7c0.1,0.2,0.3,0.3,0.5,0.3c0.3,0.1,0.7,0.1,1,0.1c0.4,0,0.8,0,1.2-0.2
			c0.3-0.2,0.4-0.5,0.4-0.8c0-0.3-0.1-0.6-0.4-0.8C131.8,70.5,131.4,70.4,131,70.5z"/>
		<path class="st9" d="M137.5,73.6h-1.8v-7.3h1.8v2.8h3.1v-2.8h1.8v7.3h-1.8v-3.2h-3.1V73.6z"/>
		<path class="st9" d="M148.9,71.3h1.7v0.3c0,0.5-0.1,1-0.4,1.4c-0.3,0.3-0.7,0.6-1.1,0.7c-0.6,0.1-1.2,0.2-1.9,0.2
			c-0.7,0-1.4-0.1-2-0.3c-0.5-0.2-0.8-0.7-1-1.2c-0.2-0.7-0.4-1.5-0.3-2.3c0-0.8,0.1-1.5,0.3-2.2c0.2-0.5,0.6-0.9,1.1-1.2
			c1.3-0.5,2.7-0.5,4,0c0.5,0.2,0.9,0.7,1.1,1.2c0.2,0.7,0.4,1.4,0.3,2.1v0.5h-5c0,0.5,0,0.9,0.1,1.3c0.1,0.3,0.2,0.5,0.5,0.6
			c0.3,0.1,0.7,0.2,1,0.2c0.3,0,0.7,0,1-0.1c0.2,0,0.4-0.1,0.5-0.3c0.1-0.2,0.2-0.4,0.2-0.6L148.9,71.3z M148.9,69.2
			c0-0.3,0-0.7-0.2-1c-0.1-0.2-0.3-0.4-0.5-0.5c-0.3-0.1-0.7-0.2-1-0.2c-0.3,0-0.7,0-1,0.2c-0.2,0.1-0.4,0.3-0.5,0.5
			c-0.1,0.3-0.2,0.7-0.1,1H148.9z"/>
		<path class="st9" d="M156.8,70.9h1.7c0,0.5,0,0.9-0.2,1.3c-0.1,0.3-0.3,0.6-0.6,0.9c-0.3,0.2-0.6,0.4-1,0.5
			c-0.5,0.1-1,0.2-1.6,0.2c-0.7,0-1.4-0.1-2-0.3c-0.5-0.2-0.8-0.7-1-1.2c-0.4-1.5-0.4-3,0-4.5c0.2-0.5,0.5-0.9,1-1.2
			c0.6-0.3,1.3-0.4,2-0.3c0.6,0,1.1,0.1,1.7,0.2c0.4,0.1,0.8,0.4,1.1,0.7c0.3,0.4,0.5,0.9,0.4,1.5v0.3h-1.7v-0.1
			c0-0.3,0-0.5-0.1-0.8c-0.1-0.2-0.3-0.3-0.5-0.4c-0.3-0.1-0.6-0.1-0.9-0.1c-0.3,0-0.7,0-1,0.2c-0.2,0.2-0.4,0.4-0.5,0.7
			c-0.1,0.5-0.2,1-0.1,1.5c0,0.5,0,1,0.1,1.5c0.1,0.3,0.2,0.6,0.5,0.7c0.3,0.2,0.7,0.2,1,0.2c0.3,0,0.7,0,1-0.1
			c0.2-0.1,0.4-0.2,0.4-0.5C156.8,71.5,156.8,71.2,156.8,70.9z"/>
		<path class="st9" d="M163.7,73.6v-7.3h4c0.6-0.1,1.3,0.1,1.8,0.5c0.4,0.4,0.6,1,0.5,1.5c0,0.4-0.1,0.7-0.4,1
			c-0.3,0.3-0.6,0.5-1,0.6l0,0c0.4,0.1,0.8,0.3,1.1,0.6c0.3,0.3,0.4,0.7,0.4,1.2c0,0.4-0.1,0.8-0.2,1.2c-0.1,0.3-0.4,0.5-0.7,0.7
			c-0.4,0.2-0.9,0.2-1.4,0.2L163.7,73.6z M165.4,67.6v1.7h1.7c0.3,0,0.7,0,0.9-0.2c0.2-0.2,0.3-0.4,0.3-0.6c0-0.3-0.1-0.5-0.2-0.7
			c-0.2-0.2-0.5-0.2-0.8-0.2L165.4,67.6z M165.4,70.5v1.9h1.9c0.3,0,0.6-0.1,0.9-0.2c0.2-0.2,0.3-0.4,0.3-0.7c0-0.6-0.3-0.9-1-0.9
			L165.4,70.5z"/>
		<path class="st9" d="M177,66.3v4.3c0,0.4,0,0.7-0.1,1.1c-0.1,0.3-0.1,0.6-0.2,0.9c0.4-0.8,0.6-1.4,0.8-1.7l2.4-4.6h2.1v7.3h-1.7
			v-4c0-0.4,0-0.8,0.1-1.2c0-0.3,0.1-0.7,0.2-1c-0.4,0.9-0.7,1.4-0.8,1.6l-2.4,4.6h-2.1v-7.4H177z"/>
		<path class="st9" d="M185.6,73.6h-1.8v-7.3h1.8v2.8h3.1v-2.8h1.8v7.3h-1.8v-3.2h-3.1V73.6z"/>
		<path class="st9" d="M194.1,67.7h-2.4v-1.4h6.4v1.4h-2.4v6h-1.7V67.7z"/>
		<path class="st9" d="M204.1,71.3h1.7v0.3c0,0.5-0.1,1-0.4,1.4c-0.3,0.3-0.7,0.6-1.1,0.7c-0.6,0.1-1.2,0.2-1.9,0.2
			c-0.7,0-1.4-0.1-2-0.3c-0.5-0.2-0.8-0.7-1-1.2c-0.2-0.7-0.4-1.5-0.3-2.3c0-0.8,0.1-1.5,0.3-2.2c0.2-0.5,0.6-0.9,1.1-1.2
			c1.3-0.5,2.7-0.5,4,0c0.5,0.2,0.9,0.7,1.1,1.2c0.2,0.7,0.4,1.4,0.3,2.1v0.5h-5c0,0.5,0,0.9,0.1,1.3c0.1,0.3,0.2,0.5,0.5,0.6
			c0.3,0.1,0.7,0.2,1,0.2c0.3,0,0.7,0,1-0.1c0.2,0,0.4-0.1,0.5-0.3c0.1-0.2,0.2-0.4,0.2-0.6L204.1,71.3z M204.1,69.2
			c0-0.3,0-0.7-0.2-1c-0.1-0.2-0.3-0.4-0.5-0.5c-0.3-0.1-0.7-0.2-1-0.2c-0.3,0-0.7,0-1,0.2c-0.2,0.1-0.4,0.3-0.5,0.5
			c-0.1,0.3-0.2,0.7-0.1,1H204.1z"/>
		<path class="st9" d="M209.1,72.6v4.1h-1.8V66.3h1.7l-0.1,1h0.1c0.2-0.4,0.6-0.7,0.9-0.9c0.4-0.2,0.9-0.3,1.3-0.3
			c0.6,0,1.3,0.1,1.8,0.4c0.4,0.3,0.7,0.7,0.9,1.2c0.2,0.7,0.2,1.4,0.2,2.1c0,0.5,0,1-0.1,1.6c0,0.4-0.2,0.8-0.4,1.2
			c-0.2,0.4-0.5,0.6-0.9,0.8c-0.5,0.2-1,0.3-1.5,0.3c-0.5,0-1-0.1-1.4-0.2C209.6,73.3,209.3,73,209.1,72.6z M209.1,69.8
			c0,0.5,0,1.1,0.1,1.6c0,0.3,0.2,0.6,0.5,0.8c0.3,0.2,0.7,0.3,1.1,0.2c0.4,0,0.8-0.1,1.1-0.3c0.2-0.2,0.4-0.5,0.4-0.8
			c0.1-0.5,0.1-1,0.1-1.5c0-0.5,0-1-0.1-1.5c-0.1-0.3-0.2-0.5-0.5-0.6c-0.3-0.1-0.7-0.2-1-0.2c-0.4,0-0.7,0-1.1,0.2
			c-0.3,0.1-0.4,0.4-0.5,0.7C209.2,68.8,209.1,69.3,209.1,69.8z"/>
		<path class="st9" d="M217.6,73.6h-1.8v-7.3h1.8v2.8h3.1v-2.8h1.8v7.3h-1.8v-3.2h-3.1V73.6z"/>
		<path class="st9" d="M229,71.3h1.7v0.3c0,0.5-0.1,1-0.4,1.4c-0.3,0.3-0.7,0.6-1.1,0.7c-0.6,0.1-1.2,0.2-1.9,0.2
			c-0.7,0-1.4-0.1-2-0.3c-0.5-0.2-0.8-0.7-1-1.2c-0.2-0.7-0.3-1.5-0.3-2.2c0-0.8,0.1-1.5,0.3-2.2c0.2-0.5,0.6-0.9,1.1-1.2
			c1.3-0.5,2.7-0.5,4,0c0.5,0.2,0.9,0.7,1.1,1.2c0.2,0.7,0.4,1.4,0.3,2.1v0.5h-5c0,0.5,0,0.9,0.1,1.3c0.1,0.3,0.2,0.5,0.5,0.6
			c0.3,0.1,0.7,0.2,1,0.2c0.3,0,0.7,0,1-0.1c0.2,0,0.4-0.1,0.5-0.3c0.1-0.2,0.2-0.4,0.2-0.6L229,71.3z M229,69.2c0-0.3,0-0.7-0.2-1
			c-0.1-0.2-0.3-0.4-0.5-0.5c-0.3-0.1-0.7-0.2-1-0.2c-0.3,0-0.7,0-1,0.2c-0.2,0.1-0.4,0.3-0.5,0.5c-0.1,0.3-0.2,0.7-0.1,1H229z"/>
		<path class="st9" d="M234.1,67.7h-2.4v-1.4h6.4v1.4h-2.3v6h-1.8V67.7z"/>
		<path class="st9" d="M244.1,71.3h1.7v0.3c0,0.5-0.1,1-0.4,1.4c-0.3,0.3-0.7,0.6-1.1,0.7c-0.6,0.1-1.2,0.2-1.9,0.2
			c-0.7,0-1.4-0.1-2-0.3c-0.5-0.2-0.8-0.7-1-1.2c-0.2-0.7-0.4-1.5-0.3-2.3c0-0.8,0.1-1.5,0.3-2.2c0.2-0.5,0.6-0.9,1.1-1.2
			c1.3-0.5,2.7-0.5,4,0c0.5,0.2,0.9,0.7,1.1,1.2c0.2,0.7,0.4,1.4,0.3,2.1v0.5h-5c0,0.5,0,0.9,0.1,1.3c0.1,0.3,0.2,0.5,0.5,0.6
			c0.3,0.1,0.7,0.2,1,0.2c0.3,0,0.7,0,1-0.1c0.2,0,0.4-0.1,0.5-0.3c0.1-0.2,0.2-0.4,0.2-0.6L244.1,71.3z M244.1,69.2
			c0-0.3,0-0.7-0.2-1c-0.1-0.2-0.3-0.4-0.5-0.5c-0.3-0.1-0.7-0.2-1-0.2c-0.3,0-0.7,0-1,0.2c-0.2,0.1-0.4,0.3-0.5,0.5
			c-0.1,0.3-0.2,0.7-0.1,1H244.1z"/>
		
			<linearGradient id="SVGID_9_" gradientUnits="userSpaceOnUse" x1="72.12" y1="32.81" x2="44.47" y2="32.81" gradientTransform="matrix(1 0 0 -1 0 78)">
			<stop  offset="0" style="stop-color:#FF0000"/>
			<stop  offset="1" style="stop-color:#AA272D"/>
		</linearGradient>
		<polyline class="st10" points="59.2,35.2 44.5,55.1 72.1,55.2 		"/>
		
			<linearGradient id="SVGID_10_" gradientUnits="userSpaceOnUse" x1="57.51" y1="42.105" x2="21.4" y2="42.105" gradientTransform="matrix(1 0 0 -1 0 78)">
			<stop  offset="0" style="stop-color:#FF0000"/>
			<stop  offset="1" style="stop-color:#AA272D"/>
		</linearGradient>
		<polyline class="st11" points="21.4,55.1 47.1,16.7 57.5,32.7 40.8,55.1 		"/>
		
			<linearGradient id="SVGID_11_" gradientUnits="userSpaceOnUse" x1="45.7" y1="50.445" x2="0.12" y2="50.445" gradientTransform="matrix(1 0 0 -1 0 78)">
			<stop  offset="0" style="stop-color:#FF0000"/>
			<stop  offset="1" style="stop-color:#AA272D"/>
		</linearGradient>
		<polyline class="st12" points="0.1,55.1 36.3,0 45.7,14.5 18.4,55.1 		"/>
	</g>
</g>
</svg>
